<?xml version="1.0" encoding="utf-8"?>
<!-- Generator: Adobe Illustrator 15.0.0, SVG Export Plug-In . SVG Version: 6.00 Build 0)  -->
<!DOCTYPE svg PUBLIC "-//W3C//DTD SVG 1.1//EN" "http://www.w3.org/Graphics/SVG/1.1/DTD/svg11.dtd">
<svg version="1.1" id="Layer_1" xmlns="http://www.w3.org/2000/svg" xmlns:xlink="http://www.w3.org/1999/xlink" x="0px" y="0px"
	 width="665.945px" height="134.54px" viewBox="-161.041 336.198 665.945 134.54"
	 enable-background="new -161.041 336.198 665.945 134.54" xml:space="preserve">
<g>
	<g>
		<path fill="#28445B" d="M497.771,379.815c-1.212-7.824-6.098-11.737-14.658-11.737c-4.281,0-7.967,1.447-11.061,4.345
			c-3.091,2.897-4.614,6.422-4.571,10.572c0.043,4.063,1.503,7.524,4.377,10.376c2.876,2.854,6.346,4.28,10.411,4.28
			c3.459,0,6.745-0.646,9.859-1.943c3.631-1.559,5.942-3.654,6.938-6.292l4.348,4.216c-1.772,3.328-4.605,5.882-8.495,7.653
			c-3.548,1.688-7.481,2.529-11.806,2.529c-6.055,0-11.232-2-15.535-5.999c-4.301-4.001-6.452-8.94-6.452-14.82
			c0-5.839,2.16-10.789,6.485-14.853c4.323-4.066,9.491-6.099,15.502-6.099c6.484,0.043,11.564,1.516,15.24,4.41
			c4.368,3.417,6.551,8.713,6.551,15.892c0,0.863-0.021,1.772-0.065,2.726h-31.131v-5.188h23.997L497.771,379.815z M448.707,374.045
			c-3.676-3.979-7.761-5.968-12.259-5.968c-4.021,0-7.479,1.47-10.377,4.41c-2.896,2.938-4.346,6.441-4.346,10.507
			c0,4.021,1.448,7.47,4.346,10.346c2.897,2.875,6.355,4.312,10.377,4.312c3.07,0,5.85-0.821,8.334-2.464
			c2.487-1.645,4.249-3.87,5.287-6.682l4.41,4.219c-3.935,7.394-9.643,11.09-17.123,11.09c-6.184,0-11.35-1.902-15.501-5.708
			c-4.323-3.936-6.486-8.973-6.486-15.111c0-5.924,2.055-10.896,6.161-14.917c4.109-4.021,9.168-6.033,15.18-6.033
			c7.393,0,13.101,2.833,17.12,8.496L448.707,374.045z M396.692,368.078c-3.341,0-6.106,1.156-8.292,3.47
			c-2.193,2.313-3.286,5.178-3.286,8.594v23.09h-6.615v-40.603h6.615v4.217c2.174-1.687,4.055-2.854,5.654-3.502
			c1.955-0.864,4.118-1.299,6.507-1.299c5.502,0,10.011,2.161,13.523,6.485l-5.72,3.114
			C402.864,369.266,400.064,368.078,396.692,368.078z M333.651,385.978v-23.285h6.486v22.961c0,3.372,1.08,6.226,3.242,8.562
			c2.161,2.336,4.906,3.502,8.236,3.502c3.372,0,6.15-1.155,8.334-3.47c2.185-2.313,3.275-5.156,3.275-8.527v-23.026h6.616v40.537
			h-6.616v-4.281c-2.161,1.688-4.043,2.854-5.643,3.503c-1.945,0.865-4.108,1.297-6.485,1.297c-4.886,0-9.017-1.739-12.388-5.221
			C335.338,395.048,333.651,390.863,333.651,385.978z M301.646,403.814c-5.967,0-11.111-2.012-15.437-6.031
			c-4.325-4.021-6.485-8.951-6.485-14.788c0-5.839,2.161-10.789,6.485-14.853c4.324-4.066,9.47-6.099,15.437-6.099
			c6.01,0,11.199,2.031,15.566,6.099c4.366,4.063,6.552,9.014,6.552,14.853c0,5.837-2.186,10.768-6.552,14.788
			C312.845,401.802,307.655,403.814,301.646,403.814z M301.646,368.078c-4.28,0-7.955,1.447-11.025,4.345
			c-3.07,2.898-4.604,6.422-4.604,10.572c0.043,4.151,1.599,7.631,4.668,10.441c3.07,2.812,6.725,4.215,10.962,4.215
			c4.28,0,7.967-1.403,11.06-4.215s4.658-6.29,4.7-10.441c0.044-4.15-1.501-7.675-4.636-10.572
			C309.635,369.525,305.926,368.078,301.646,368.078z M231.049,403.23v-6.745h27.694c1.6,0,2.984-0.552,4.151-1.654
			c1.167-1.102,1.751-2.453,1.751-4.053s-0.573-2.95-1.72-4.054c-1.146-1.104-2.539-1.653-4.184-1.653h-16.798
			c-4.366,0-7.631-1.839-9.793-5.515c-1.038-1.772-1.556-3.676-1.556-5.707c0-3.07,1.092-5.707,3.273-7.912
			c2.185-2.205,4.833-3.31,7.946-3.31h28.214v6.554h-27.966c-1.34,0-2.476,0.451-3.425,1.371c-0.952,0.906-1.429,2.021-1.429,3.328
			c0,1.352,0.477,2.486,1.429,3.396c0.949,0.918,2.085,1.373,3.425,1.373h17.092c4.917,0,8.55,2.053,10.874,6.16
			c1.081,1.904,1.621,3.937,1.621,6.098c0,3.632-1.243,6.595-3.729,8.885c-2.486,2.293-5.523,3.438-9.112,3.438H231.049z
			 M163.955,382.93c0,5.793,2.054,10.625,6.162,14.495c4.107,3.868,9.103,5.805,14.981,5.805h15.825v-51.304h-6.291v10.701h-9.858
			c-3.978,0-7.609,0.951-10.896,2.854s-5.838,4.583-7.652,8.042C164.711,376.51,163.955,379.642,163.955,382.93z M194.632,396.679
			h-9.21c-4.149,0-7.642-1.274-10.474-3.826c-2.833-2.551-4.248-5.859-4.248-9.923c0-4.108,1.449-7.546,4.345-10.313
			c2.897-2.769,6.421-4.151,10.573-4.151h9.015L194.632,396.679L194.632,396.679z M117.225,385.978v-23.285h6.485v22.961
			c0,3.372,1.081,6.226,3.243,8.562s4.908,3.502,8.237,3.502c3.372,0,6.149-1.155,8.333-3.47c2.184-2.313,3.275-5.156,3.275-8.527
			v-23.026h6.615v40.537H146.8v-4.281c-2.161,1.688-4.043,2.854-5.643,3.503c-1.946,0.865-4.108,1.297-6.486,1.297
			c-4.887,0-9.016-1.739-12.388-5.221C118.912,395.047,117.225,390.863,117.225,385.978z M85.219,403.814
			c-5.967,0-11.111-2.012-15.436-6.031c-4.324-4.021-6.487-8.951-6.487-14.788c0-5.839,2.163-10.789,6.487-14.853
			c4.324-4.066,9.469-6.099,15.436-6.099c6.011,0,11.199,2.031,15.565,6.099c4.368,4.063,6.551,9.014,6.551,14.853
			c0,5.837-2.183,10.768-6.551,14.788C96.419,401.802,91.23,403.814,85.219,403.814z M85.219,368.078
			c-4.28,0-7.955,1.447-11.026,4.345c-3.069,2.897-4.604,6.422-4.604,10.572c0.043,4.151,1.601,7.631,4.669,10.441
			c3.072,2.812,6.726,4.215,10.962,4.215c4.28,0,7.967-1.403,11.059-4.215s4.659-6.29,4.702-10.441
			c0.043-4.15-1.503-7.675-4.638-10.572S89.5,368.078,85.219,368.078z M53.02,403.23h-6.616v-51.304h6.616V403.23z M33.338,374.045
			c-3.676-3.979-7.761-5.968-12.258-5.968c-4.022,0-7.481,1.47-10.378,4.41c-2.896,2.938-4.345,6.441-4.345,10.507
			c0,4.021,1.448,7.47,4.345,10.346c2.896,2.875,6.355,4.312,10.378,4.312c3.069,0,5.848-0.821,8.333-2.464
			c2.486-1.645,4.248-3.87,5.287-6.682l4.409,4.219c-3.935,7.394-9.643,11.09-17.122,11.09c-6.183,0-11.351-1.902-15.501-5.708
			C2.163,394.171,0,389.134,0,382.995c0-5.924,2.055-10.896,6.162-14.917c4.108-4.021,9.167-6.033,15.177-6.033
			c7.394,0,13.104,2.833,17.123,8.496L33.338,374.045z"/>
		<g>
			<path fill="#737477" d="M258.865,442.201c2.554,2.093,6.381,3.521,9.696,3.521c6.787,0,10.41-3.571,10.41-8.164
				c0-4.645-3.623-6.431-6.838-7.604c-2.604-0.969-4.95-1.581-4.95-3.214c0-1.276,0.919-1.992,2.857-1.992
				c1.786,0,3.521,0.816,5.357,2.146l3.369-4.492c-2.195-1.632-5.054-3.213-8.932-3.213c-5.868,0-9.696,3.213-9.696,7.909
				c0,4.186,3.623,6.276,6.686,7.448c2.604,1.022,5.155,1.787,5.155,3.472c0,1.328-0.97,2.144-3.217,2.144
				c-2.142,0-4.234-0.919-6.531-2.653L258.865,442.201z M201.901,445.11h7.501v-17.097c1.581-1.635,3.063-2.45,4.287-2.45
				c2.143,0,3.112,1.125,3.112,4.798v14.749h7.502v-17.097c1.633-1.635,3.061-2.45,4.337-2.45c2.144,0,3.112,1.125,3.112,4.798
				v14.749h7.503v-15.719c0-6.327-2.45-10.205-7.91-10.205c-3.367,0-5.716,1.938-7.961,4.233c-1.276-2.705-3.42-4.233-6.992-4.233
				c-3.316,0-5.563,1.786-7.653,3.878h-0.203l-0.512-3.269h-6.123V445.11L201.901,445.11z M165.706,429.851
				c0.511-3.369,2.553-4.95,4.899-4.95c3.011,0,4.234,2.042,4.234,4.95H165.706z M158.51,432.454
				c0,8.369,5.563,13.267,12.809,13.267c3.011,0,6.379-1.071,8.982-2.857l-2.5-4.541c-1.839,1.122-3.572,1.687-5.461,1.687
				c-3.368,0-5.922-1.687-6.582-5.513h15.153c0.153-0.611,0.309-1.838,0.309-3.166c0-6.889-3.572-12.144-10.77-12.144
				C164.38,419.186,158.51,424.238,158.51,432.454z M126.499,435.922c0,5.869,2.449,9.799,8.728,9.799
				c2.448,0,4.286-0.511,5.613-0.919l-1.174-5.458c-0.664,0.255-1.582,0.51-2.397,0.51c-1.991,0-3.267-1.174-3.267-4.032v-10.154
				h6.072v-5.87h-6.072v-6.733h-6.227l-0.867,6.733l-3.878,0.308v5.563h3.469V435.922L126.499,435.922z M85.149,442.201
				c2.552,2.093,6.38,3.521,9.696,3.521c6.787,0,10.411-3.571,10.411-8.164c0-4.645-3.624-6.431-6.839-7.604
				c-2.604-0.969-4.949-1.581-4.949-3.214c0-1.276,0.919-1.992,2.856-1.992c1.787,0,3.521,0.816,5.358,2.146l3.369-4.492
				c-2.195-1.632-5.054-3.213-8.932-3.213c-5.868,0-9.695,3.213-9.695,7.909c0,4.186,3.624,6.276,6.685,7.448
				c2.604,1.022,5.155,1.787,5.155,3.472c0,1.328-0.969,2.144-3.215,2.144c-2.145,0-4.236-0.919-6.531-2.653L85.149,442.201z
				 M45.892,448.783l-1.327,5.716c1.021,0.308,2.04,0.511,3.572,0.511c5.971,0,8.675-3.266,11.073-9.645l8.777-25.568h-7.196
				l-3.061,10.871c-0.612,2.397-1.174,4.797-1.736,7.195h-0.204c-0.664-2.499-1.276-4.899-1.989-7.195l-3.624-10.871h-7.554
				l9.746,24.648l-0.356,1.328c-0.663,1.991-1.938,3.315-4.439,3.315C47.014,449.089,46.351,448.885,45.892,448.783z M0,440.924
				c3.419,3.164,8.012,4.797,12.351,4.797c7.91,0,12.502-4.797,12.502-10.309c0-4.692-2.552-7.398-6.583-9.033l-4.235-1.734
				c-2.909-1.172-5.103-1.888-5.103-3.93c0-1.888,1.684-3.01,4.234-3.01c2.653,0,4.746,0.969,6.94,2.652l3.777-4.745
				c-2.859-2.857-6.891-4.389-10.718-4.389c-6.889,0-11.839,4.389-11.839,9.899c0,4.849,3.268,7.705,6.737,9.083l4.286,1.837
				c2.908,1.227,4.796,1.889,4.796,3.98c0,1.99-1.531,3.215-4.645,3.215c-2.756,0-5.816-1.429-8.164-3.47L0,440.924z"/>
		</g>
	</g>
	<g>
		<path fill="#2E3D5A" d="M-84.171,373.676c-0.28,2.984-5.832,3.832-9.213,3.44c-2.871-0.329-6.683-2.34-9.127-3.558
			c-9.459-4.707-24.667-11.259-35.039-15.993c-3.051-1.394-6.428-2.412-10.387-1.107c-12.868,4.241-8.936,5.555-3.389,8.076
			c1.996,0.908,4.036,1.941,6.075,2.785c8.457,3.501,45.586,21.316,49.387,21.996c5.26,0.938,10.314-1.946,14.414-3.556
			c3.06-1.2,24.669-9.294,25.131-10.646c0.775-2.264-8.754-5.738-10.699-6.55c-4.104-1.714-8.031-3.658-11.938-5.443l-18.043-8.199
			c-5.267-2.415-8.516-3.828,1.243-7.074c2.121-0.706,5.733-0.171,8.23,0.837c4.446,1.795,8.837,4.101,13.288,5.96l26.682,12.132
			c2.793,1.269,4.067,1.955,7.891,1.724c1.778-0.104,6.473-1.652,7.235-2.386c2.853-2.731-5.536-5.266-10.661-7.614l-39.85-18.186
			c-3.928-1.794-9.542-5.411-15.4-3.641l-27.3,10.902c-9.113,3.408-3.154,4.941,2.537,7.521l32.764,14.927
			C-88.153,371.025-85.084,371.882-84.171,373.676"/>
		<path fill="#2E3D5A" d="M-29.679,422.629l0.037-11.832c0.023-2.97-0.084-5.726-3.238-5.407c-1.771,0.411-3.965,1.039-5.168,2.068
			l-28.804,12.301c-4.692,1.954-8.64,4.742-9.768,0.824c-0.375-1.307-0.244-3.42-0.264-6.55c0.311-2.335,0.179-3.095,2.021-4.365
			c2.453-1.688,7.248-3.608,9.91-4.664c9.697-3.847,19.222-8.447,28.82-12.37c3.104-1.268,4.498-1.81,5.833-4.701
			c0.763-1.649,0.641-7.3,0.202-9.99c-1.598-2.821-5.599-0.294-7.635,0.529c-13.591,5.5-29.459,12.685-43.333,18.66
			c-7.799,3.359-7.647,4.421-7.646,13.746v21.899c0,1.661,0.1,4.741,0.353,6.944c0.306,2.635,1.532,2.826,3.565,2.389
			c3.914-0.836,10.674-4.464,12.745-5.296l21.769-9.431c1.604-0.724,3.917-1.919,5.488-2.287c2.707-0.633,2.685,0.275,2.896,2.637
			c0.155,1.75,0.157,3.532,0.015,5.228c-0.378,4.449-3.029,4.187-9.189,7.078c-9.259,4.345-21.424,9.28-31.165,13.507
			c-3.028,1.315-4.847,2.274-5.992,5.243c-0.094,2.366-0.47,9.136,0.798,10.401c1.837,1.311,6.267-1.219,8.001-1.994l39.149-16.989
			c6.663-2.904,10.927-3.128,10.617-12.289l0.058-1.953L-29.679,422.629z"/>
		<path fill="#EC3438" d="M-160.692,438.194c0.229,5.768,7.629,8.259,12.953,10.7l39.994,18.673
			c6.462,3.021,10.026,6.089,9.997-2.031c-0.021-6.493,0.252-8.574-6.658-11.646c-10.849-4.823-22.801-10.414-33.552-15.151
			c-2.838-1.25-7.205-3.271-8.75-5.625c-1.991-6.576-0.193-34.387-0.167-34.905c-0.22-6.229,2.965-5.384,7.59-2.936
			c6.467,3.424,21.061,9.743,28.623,13.38c1.565,0.753,5.981,3.394,9.218,4.218c1.313,0.335,3.157-0.382,3.458-2.481
			c0.32-4.57,0.018-7.359,0.05-8.636c-0.905-1.575-1.469-2.669-2.573-3.351c-1.313-0.809-3.704-1.91-5.848-2.922
			c-6.108-2.884-12.178-5.688-18.291-8.504c-6.259-2.887-12.168-5.541-18.291-8.512c-3.196-1.552-6.064-2.738-9.125-4.268
			c-2.064-1.031-8.832-4.913-8.597,0.338l-0.381,31.821C-161.044,409.737-160.864,436.181-160.692,438.194"/>
	</g>
</g>
</svg>
